<svg id="visual" viewBox="0 0 1800 140" width="1800" height="140" xmlns="http://www.w3.org/2000/svg" xmlns:xlink="http://www.w3.org/1999/xlink" version="1.1"><rect x="0" y="0" width="1800" height="140" fill="#041C32"></rect><path d="M0 25L25 27.7C50 30.3 100 35.7 150 37.2C200 38.7 250 36.3 300 36C350 35.7 400 37.3 450 36.2C500 35 550 31 600 28C650 25 700 23 750 26.3C800 29.7 850 38.3 900 39.2C950 40 1000 33 1050 29C1100 25 1150 24 1200 27C1250 30 1300 37 1350 41C1400 45 1450 46 1500 43C1550 40 1600 33 1650 28.8C1700 24.7 1750 23.3 1775 22.7L1800 22L1800 141L1775 141C1750 141 1700 141 1650 141C1600 141 1550 141 1500 141C1450 141 1400 141 1350 141C1300 141 1250 141 1200 141C1150 141 1100 141 1050 141C1000 141 950 141 900 141C850 141 800 141 750 141C700 141 650 141 600 141C550 141 500 141 450 141C400 141 350 141 300 141C250 141 200 141 150 141C100 141 50 141 25 141L0 141Z" fill="#04293a"></path><path d="M0 51L25 50.3C50 49.7 100 48.3 150 50.5C200 52.7 250 58.3 300 58.8C350 59.3 400 54.7 450 51C500 47.3 550 44.7 600 43.8C650 43 700 44 750 47.5C800 51 850 57 900 56.7C950 56.3 1000 49.7 1050 46.5C1100 43.3 1150 43.7 1200 45.7C1250 47.7 1300 51.3 1350 51.5C1400 51.7 1450 48.3 1500 47.5C1550 46.7 1600 48.3 1650 51.3C1700 54.3 1750 58.7 1775 60.8L1800 63L1800 141L1775 141C1750 141 1700 141 1650 141C1600 141 1550 141 1500 141C1450 141 1400 141 1350 141C1300 141 1250 141 1200 141C1150 141 1100 141 1050 141C1000 141 950 141 900 141C850 141 800 141 750 141C700 141 650 141 600 141C550 141 500 141 450 141C400 141 350 141 300 141C250 141 200 141 150 141C100 141 50 141 25 141L0 141Z" fill="#004954"></path><path d="M0 63L25 62.7C50 62.3 100 61.7 150 64.2C200 66.7 250 72.3 300 74.5C350 76.7 400 75.3 450 72C500 68.7 550 63.3 600 61C650 58.7 700 59.3 750 59.7C800 60 850 60 900 60.3C950 60.7 1000 61.3 1050 62.2C1100 63 1150 64 1200 63.7C1250 63.3 1300 61.7 1350 61.8C1400 62 1450 64 1500 67C1550 70 1600 74 1650 75.2C1700 76.3 1750 74.7 1775 73.8L1800 73L1800 141L1775 141C1750 141 1700 141 1650 141C1600 141 1550 141 1500 141C1450 141 1400 141 1350 141C1300 141 1250 141 1200 141C1150 141 1100 141 1050 141C1000 141 950 141 900 141C850 141 800 141 750 141C700 141 650 141 600 141C550 141 500 141 450 141C400 141 350 141 300 141C250 141 200 141 150 141C100 141 50 141 25 141L0 141Z" fill="#056a5c"></path><path d="M0 83L25 82.5C50 82 100 81 150 82C200 83 250 86 300 87.5C350 89 400 89 450 87C500 85 550 81 600 79.2C650 77.3 700 77.7 750 77.8C800 78 850 78 900 79.8C950 81.7 1000 85.3 1050 88.2C1100 91 1150 93 1200 90.8C1250 88.7 1300 82.3 1350 81.5C1400 80.7 1450 85.3 1500 85.8C1550 86.3 1600 82.7 1650 80.7C1700 78.7 1750 78.3 1775 78.2L1800 78L1800 141L1775 141C1750 141 1700 141 1650 141C1600 141 1550 141 1500 141C1450 141 1400 141 1350 141C1300 141 1250 141 1200 141C1150 141 1100 141 1050 141C1000 141 950 141 900 141C850 141 800 141 750 141C700 141 650 141 600 141C550 141 500 141 450 141C400 141 350 141 300 141C250 141 200 141 150 141C100 141 50 141 25 141L0 141Z" fill="#518957"></path><path d="M0 110L25 109.3C50 108.7 100 107.3 150 106.5C200 105.7 250 105.3 300 104.8C350 104.3 400 103.7 450 102.5C500 101.3 550 99.7 600 100.8C650 102 700 106 750 108.2C800 110.3 850 110.7 900 108.5C950 106.3 1000 101.7 1050 99.8C1100 98 1150 99 1200 99.7C1250 100.3 1300 100.7 1350 99.8C1400 99 1450 97 1500 97.7C1550 98.3 1600 101.7 1650 101.8C1700 102 1750 99 1775 97.5L1800 96L1800 141L1775 141C1750 141 1700 141 1650 141C1600 141 1550 141 1500 141C1450 141 1400 141 1350 141C1300 141 1250 141 1200 141C1150 141 1100 141 1050 141C1000 141 950 141 900 141C850 141 800 141 750 141C700 141 650 141 600 141C550 141 500 141 450 141C400 141 350 141 300 141C250 141 200 141 150 141C100 141 50 141 25 141L0 141Z" fill="#9aa253"></path><path d="M0 125L25 125.2C50 125.3 100 125.7 150 125C200 124.3 250 122.7 300 120.8C350 119 400 117 450 116.7C500 116.3 550 117.7 600 119.3C650 121 700 123 750 122.3C800 121.7 850 118.3 900 116.2C950 114 1000 113 1050 112.8C1100 112.7 1150 113.3 1200 113.7C1250 114 1300 114 1350 115C1400 116 1450 118 1500 118C1550 118 1600 116 1650 116.8C1700 117.7 1750 121.3 1775 123.2L1800 125L1800 141L1775 141C1750 141 1700 141 1650 141C1600 141 1550 141 1500 141C1450 141 1400 141 1350 141C1300 141 1250 141 1200 141C1150 141 1100 141 1050 141C1000 141 950 141 900 141C850 141 800 141 750 141C700 141 650 141 600 141C550 141 500 141 450 141C400 141 350 141 300 141C250 141 200 141 150 141C100 141 50 141 25 141L0 141Z" fill="#ecb365"></path></svg>