<svg id="visual" viewBox="0 0 1800 140" width="1800" height="140" xmlns="http://www.w3.org/2000/svg" xmlns:xlink="http://www.w3.org/1999/xlink" version="1.1"><rect x="0" y="0" width="1800" height="140" fill="#041C32"></rect><path d="M0 105L25 103.2C50 101.3 100 97.7 150 95.8C200 94 250 94 300 97C350 100 400 106 450 105.5C500 105 550 98 600 96C650 94 700 97 750 100.7C800 104.3 850 108.7 900 109.5C950 110.3 1000 107.7 1050 104.7C1100 101.7 1150 98.3 1200 96.8C1250 95.3 1300 95.7 1350 99.5C1400 103.3 1450 110.7 1500 113.8C1550 117 1600 116 1650 115.2C1700 114.3 1750 113.7 1775 113.3L1800 113L1800 0L1775 0C1750 0 1700 0 1650 0C1600 0 1550 0 1500 0C1450 0 1400 0 1350 0C1300 0 1250 0 1200 0C1150 0 1100 0 1050 0C1000 0 950 0 900 0C850 0 800 0 750 0C700 0 650 0 600 0C550 0 500 0 450 0C400 0 350 0 300 0C250 0 200 0 150 0C100 0 50 0 25 0L0 0Z" fill="#04293a"></path><path d="M0 83L25 85.2C50 87.3 100 91.7 150 93.5C200 95.3 250 94.7 300 91.8C350 89 400 84 450 83C500 82 550 85 600 85C650 85 700 82 750 83.2C800 84.3 850 89.7 900 93C950 96.3 1000 97.7 1050 96C1100 94.3 1150 89.7 1200 89.3C1250 89 1300 93 1350 94.8C1400 96.7 1450 96.3 1500 96.5C1550 96.7 1600 97.3 1650 95C1700 92.7 1750 87.3 1775 84.7L1800 82L1800 0L1775 0C1750 0 1700 0 1650 0C1600 0 1550 0 1500 0C1450 0 1400 0 1350 0C1300 0 1250 0 1200 0C1150 0 1100 0 1050 0C1000 0 950 0 900 0C850 0 800 0 750 0C700 0 650 0 600 0C550 0 500 0 450 0C400 0 350 0 300 0C250 0 200 0 150 0C100 0 50 0 25 0L0 0Z" fill="#004954"></path><path d="M0 61L25 61.3C50 61.7 100 62.3 150 64.3C200 66.3 250 69.7 300 72.5C350 75.3 400 77.7 450 76.8C500 76 550 72 600 68.7C650 65.3 700 62.7 750 62.2C800 61.7 850 63.3 900 65.8C950 68.3 1000 71.7 1050 72.3C1100 73 1150 71 1200 68.7C1250 66.3 1300 63.7 1350 63.8C1400 64 1450 67 1500 67.3C1550 67.7 1600 65.3 1650 65.2C1700 65 1750 67 1775 68L1800 69L1800 0L1775 0C1750 0 1700 0 1650 0C1600 0 1550 0 1500 0C1450 0 1400 0 1350 0C1300 0 1250 0 1200 0C1150 0 1100 0 1050 0C1000 0 950 0 900 0C850 0 800 0 750 0C700 0 650 0 600 0C550 0 500 0 450 0C400 0 350 0 300 0C250 0 200 0 150 0C100 0 50 0 25 0L0 0Z" fill="#056a5c"></path><path d="M0 53L25 51.3C50 49.7 100 46.3 150 44.8C200 43.3 250 43.7 300 45.8C350 48 400 52 450 54.3C500 56.7 550 57.3 600 58.2C650 59 700 60 750 60.7C800 61.3 850 61.7 900 60.5C950 59.3 1000 56.7 1050 56.5C1100 56.3 1150 58.7 1200 60C1250 61.3 1300 61.7 1350 59C1400 56.3 1450 50.7 1500 47.5C1550 44.3 1600 43.7 1650 43.8C1700 44 1750 45 1775 45.5L1800 46L1800 0L1775 0C1750 0 1700 0 1650 0C1600 0 1550 0 1500 0C1450 0 1400 0 1350 0C1300 0 1250 0 1200 0C1150 0 1100 0 1050 0C1000 0 950 0 900 0C850 0 800 0 750 0C700 0 650 0 600 0C550 0 500 0 450 0C400 0 350 0 300 0C250 0 200 0 150 0C100 0 50 0 25 0L0 0Z" fill="#518957"></path><path d="M0 33L25 33.2C50 33.3 100 33.7 150 35C200 36.3 250 38.7 300 37.8C350 37 400 33 450 32.8C500 32.7 550 36.3 600 36.3C650 36.3 700 32.7 750 32.5C800 32.3 850 35.7 900 37.5C950 39.3 1000 39.7 1050 39.5C1100 39.3 1150 38.7 1200 37.5C1250 36.3 1300 34.7 1350 35.2C1400 35.7 1450 38.3 1500 38.5C1550 38.7 1600 36.3 1650 35.7C1700 35 1750 36 1775 36.5L1800 37L1800 0L1775 0C1750 0 1700 0 1650 0C1600 0 1550 0 1500 0C1450 0 1400 0 1350 0C1300 0 1250 0 1200 0C1150 0 1100 0 1050 0C1000 0 950 0 900 0C850 0 800 0 750 0C700 0 650 0 600 0C550 0 500 0 450 0C400 0 350 0 300 0C250 0 200 0 150 0C100 0 50 0 25 0L0 0Z" fill="#9aa253"></path><path d="M0 20L25 21C50 22 100 24 150 23.3C200 22.7 250 19.3 300 17.3C350 15.3 400 14.7 450 14.7C500 14.7 550 15.3 600 16.5C650 17.7 700 19.3 750 20.2C800 21 850 21 900 21.8C950 22.7 1000 24.3 1050 25C1100 25.7 1150 25.3 1200 25C1250 24.7 1300 24.3 1350 23.8C1400 23.3 1450 22.7 1500 21.8C1550 21 1600 20 1650 20.5C1700 21 1750 23 1775 24L1800 25L1800 0L1775 0C1750 0 1700 0 1650 0C1600 0 1550 0 1500 0C1450 0 1400 0 1350 0C1300 0 1250 0 1200 0C1150 0 1100 0 1050 0C1000 0 950 0 900 0C850 0 800 0 750 0C700 0 650 0 600 0C550 0 500 0 450 0C400 0 350 0 300 0C250 0 200 0 150 0C100 0 50 0 25 0L0 0Z" fill="#ecb365"></path></svg>